<svg xmlns="http://www.w3.org/2000/svg" width="1600" height="1200" viewBox="0 0 1600 1200" preserveAspectRatio="none">
  <defs>
    <filter id="beton" x="0" y="0" width="100%" height="100%">
      <feTurbulence type="fractalNoise" baseFrequency="0.75" numOctaves="5" seed="3"/>
      <feColorMatrix type="saturate" values="0"/>
    </filter>
    <linearGradient id="wallshade" x1="0" y1="0" x2="1" y2="0">
      <stop offset="0%" stop-color="#000" stop-opacity="0.3"/>
      <stop offset="55%" stop-color="#000" stop-opacity="0"/>
      <stop offset="100%" stop-color="#000" stop-opacity="0.26"/>
    </linearGradient>
    <linearGradient id="railface" x1="0" y1="0" x2="1" y2="0">
      <stop offset="0%" stop-color="#000" stop-opacity="0.5"/>
      <stop offset="35%" stop-color="#fff" stop-opacity="0.16"/>
      <stop offset="100%" stop-color="#000" stop-opacity="0.55"/>
    </linearGradient>
    <linearGradient id="depth" x1="0" y1="0" x2="0" y2="1">
      <stop offset="0%" stop-color="#000" stop-opacity="0.42"/>
      <stop offset="40%" stop-color="#000" stop-opacity="0.04"/>
      <stop offset="100%" stop-color="#000" stop-opacity="0.46"/>
    </linearGradient>
  </defs>
  <rect width="1600" height="1200" fill="#7b756b"/>
  <rect width="1600" height="1200" filter="url(#beton)" opacity="0.28"/>
  <rect x="200" y="0" width="1200" height="1200" fill="#000" opacity="0.1"/>
  <rect width="1600" height="1200" fill="url(#wallshade)"/>
  <g>
    <rect x="0" y="-150.0" width="1600" height="26" fill="#3a3630" opacity="0.65"/>
    <rect x="0" y="-154.0" width="1600" height="4" fill="#8f887c" opacity="0.5"/>
    <rect x="0" y="-124.0" width="1600" height="3" fill="#8f887c" opacity="0.28"/>
    <rect x="16.0" y="-124.0" width="150" height="150" fill="#3a3630" opacity="0.55"/>
    <rect x="16.0" y="-124.0" width="150" height="150" fill="none" stroke="#8f887c" stroke-width="2" opacity="0.4"/>
    <line x1="91.0" y1="-124.0" x2="91.0" y2="26.0" stroke="#8f887c" stroke-width="2" opacity="0.35"/>
    <rect x="1434.0" y="-124.0" width="150" height="150" fill="#3a3630" opacity="0.55"/>
    <rect x="1434.0" y="-124.0" width="150" height="150" fill="none" stroke="#8f887c" stroke-width="2" opacity="0.4"/>
    <line x1="1509.0" y1="-124.0" x2="1509.0" y2="26.0" stroke="#8f887c" stroke-width="2" opacity="0.35"/>
    <rect x="0" y="150.0" width="1600" height="26" fill="#3a3630" opacity="0.65"/>
    <rect x="0" y="146.0" width="1600" height="4" fill="#8f887c" opacity="0.5"/>
    <rect x="0" y="176.0" width="1600" height="3" fill="#8f887c" opacity="0.28"/>
    <rect x="16.0" y="176.0" width="150" height="150" fill="#3a3630" opacity="0.55"/>
    <rect x="16.0" y="176.0" width="150" height="150" fill="none" stroke="#8f887c" stroke-width="2" opacity="0.4"/>
    <line x1="91.0" y1="176.0" x2="91.0" y2="326.0" stroke="#8f887c" stroke-width="2" opacity="0.35"/>
    <rect x="1434.0" y="176.0" width="150" height="150" fill="#3a3630" opacity="0.55"/>
    <rect x="1434.0" y="176.0" width="150" height="150" fill="none" stroke="#8f887c" stroke-width="2" opacity="0.4"/>
    <line x1="1509.0" y1="176.0" x2="1509.0" y2="326.0" stroke="#8f887c" stroke-width="2" opacity="0.35"/>
    <rect x="0" y="450.0" width="1600" height="26" fill="#3a3630" opacity="0.65"/>
    <rect x="0" y="446.0" width="1600" height="4" fill="#8f887c" opacity="0.5"/>
    <rect x="0" y="476.0" width="1600" height="3" fill="#8f887c" opacity="0.28"/>
    <rect x="16.0" y="476.0" width="150" height="150" fill="#3a3630" opacity="0.55"/>
    <rect x="16.0" y="476.0" width="150" height="150" fill="none" stroke="#8f887c" stroke-width="2" opacity="0.4"/>
    <line x1="91.0" y1="476.0" x2="91.0" y2="626.0" stroke="#8f887c" stroke-width="2" opacity="0.35"/>
    <rect x="1434.0" y="476.0" width="150" height="150" fill="#3a3630" opacity="0.55"/>
    <rect x="1434.0" y="476.0" width="150" height="150" fill="none" stroke="#8f887c" stroke-width="2" opacity="0.4"/>
    <line x1="1509.0" y1="476.0" x2="1509.0" y2="626.0" stroke="#8f887c" stroke-width="2" opacity="0.35"/>
    <rect x="0" y="750.0" width="1600" height="26" fill="#3a3630" opacity="0.65"/>
    <rect x="0" y="746.0" width="1600" height="4" fill="#8f887c" opacity="0.5"/>
    <rect x="0" y="776.0" width="1600" height="3" fill="#8f887c" opacity="0.28"/>
    <rect x="16.0" y="776.0" width="150" height="150" fill="#3a3630" opacity="0.55"/>
    <rect x="16.0" y="776.0" width="150" height="150" fill="none" stroke="#8f887c" stroke-width="2" opacity="0.4"/>
    <line x1="91.0" y1="776.0" x2="91.0" y2="926.0" stroke="#8f887c" stroke-width="2" opacity="0.35"/>
    <rect x="1434.0" y="776.0" width="150" height="150" fill="#3a3630" opacity="0.55"/>
    <rect x="1434.0" y="776.0" width="150" height="150" fill="none" stroke="#8f887c" stroke-width="2" opacity="0.4"/>
    <line x1="1509.0" y1="776.0" x2="1509.0" y2="926.0" stroke="#8f887c" stroke-width="2" opacity="0.35"/>
    <rect x="0" y="1050.0" width="1600" height="26" fill="#3a3630" opacity="0.65"/>
    <rect x="0" y="1046.0" width="1600" height="4" fill="#8f887c" opacity="0.5"/>
    <rect x="0" y="1076.0" width="1600" height="3" fill="#8f887c" opacity="0.28"/>
    <rect x="16.0" y="1076.0" width="150" height="150" fill="#3a3630" opacity="0.55"/>
    <rect x="16.0" y="1076.0" width="150" height="150" fill="none" stroke="#8f887c" stroke-width="2" opacity="0.4"/>
    <line x1="91.0" y1="1076.0" x2="91.0" y2="1226.0" stroke="#8f887c" stroke-width="2" opacity="0.35"/>
    <rect x="1434.0" y="1076.0" width="150" height="150" fill="#3a3630" opacity="0.55"/>
    <rect x="1434.0" y="1076.0" width="150" height="150" fill="none" stroke="#8f887c" stroke-width="2" opacity="0.4"/>
    <line x1="1509.0" y1="1076.0" x2="1509.0" y2="1226.0" stroke="#8f887c" stroke-width="2" opacity="0.35"/>
    <rect x="0" y="1350.0" width="1600" height="26" fill="#3a3630" opacity="0.65"/>
    <rect x="0" y="1346.0" width="1600" height="4" fill="#8f887c" opacity="0.5"/>
    <rect x="0" y="1376.0" width="1600" height="3" fill="#8f887c" opacity="0.28"/>
    <rect x="16.0" y="1376.0" width="150" height="150" fill="#3a3630" opacity="0.55"/>
    <rect x="16.0" y="1376.0" width="150" height="150" fill="none" stroke="#8f887c" stroke-width="2" opacity="0.4"/>
    <line x1="91.0" y1="1376.0" x2="91.0" y2="1526.0" stroke="#8f887c" stroke-width="2" opacity="0.35"/>
    <rect x="1434.0" y="1376.0" width="150" height="150" fill="#3a3630" opacity="0.55"/>
    <rect x="1434.0" y="1376.0" width="150" height="150" fill="none" stroke="#8f887c" stroke-width="2" opacity="0.4"/>
    <line x1="1509.0" y1="1376.0" x2="1509.0" y2="1526.0" stroke="#8f887c" stroke-width="2" opacity="0.35"/>
    <rect x="98.2" y="0" width="34" height="1200" fill="#5e574d"/>
    <rect x="98.2" y="0" width="34" height="1200" fill="url(#railface)"/>
    <rect x="110.2" y="0" width="10" height="1200" fill="#a9a094" opacity="0.75"/>
    <rect x="77.2" y="40.0" width="76" height="18" fill="#5e574d" opacity="0.8"/>
    <circle cx="89.2" cy="49.0" r="3.4" fill="#a9a094" opacity="0.7"/>
    <circle cx="141.2" cy="49.0" r="3.4" fill="#a9a094" opacity="0.7"/>
    <rect x="77.2" y="190.0" width="76" height="18" fill="#5e574d" opacity="0.8"/>
    <circle cx="89.2" cy="199.0" r="3.4" fill="#a9a094" opacity="0.7"/>
    <circle cx="141.2" cy="199.0" r="3.4" fill="#a9a094" opacity="0.7"/>
    <rect x="77.2" y="340.0" width="76" height="18" fill="#5e574d" opacity="0.8"/>
    <circle cx="89.2" cy="349.0" r="3.4" fill="#a9a094" opacity="0.7"/>
    <circle cx="141.2" cy="349.0" r="3.4" fill="#a9a094" opacity="0.7"/>
    <rect x="77.2" y="490.0" width="76" height="18" fill="#5e574d" opacity="0.8"/>
    <circle cx="89.2" cy="499.0" r="3.4" fill="#a9a094" opacity="0.7"/>
    <circle cx="141.2" cy="499.0" r="3.4" fill="#a9a094" opacity="0.7"/>
    <rect x="77.2" y="640.0" width="76" height="18" fill="#5e574d" opacity="0.8"/>
    <circle cx="89.2" cy="649.0" r="3.4" fill="#a9a094" opacity="0.7"/>
    <circle cx="141.2" cy="649.0" r="3.4" fill="#a9a094" opacity="0.7"/>
    <rect x="77.2" y="790.0" width="76" height="18" fill="#5e574d" opacity="0.8"/>
    <circle cx="89.2" cy="799.0" r="3.4" fill="#a9a094" opacity="0.7"/>
    <circle cx="141.2" cy="799.0" r="3.4" fill="#a9a094" opacity="0.7"/>
    <rect x="77.2" y="940.0" width="76" height="18" fill="#5e574d" opacity="0.8"/>
    <circle cx="89.2" cy="949.0" r="3.4" fill="#a9a094" opacity="0.7"/>
    <circle cx="141.2" cy="949.0" r="3.4" fill="#a9a094" opacity="0.7"/>
    <rect x="77.2" y="1090.0" width="76" height="18" fill="#5e574d" opacity="0.8"/>
    <circle cx="89.2" cy="1099.0" r="3.4" fill="#a9a094" opacity="0.7"/>
    <circle cx="141.2" cy="1099.0" r="3.4" fill="#a9a094" opacity="0.7"/>
    <rect x="1487.0" y="0" width="34" height="1200" fill="#5e574d"/>
    <rect x="1487.0" y="0" width="34" height="1200" fill="url(#railface)"/>
    <rect x="1499.0" y="0" width="10" height="1200" fill="#a9a094" opacity="0.75"/>
    <rect x="1466.0" y="40.0" width="76" height="18" fill="#5e574d" opacity="0.8"/>
    <circle cx="1478.0" cy="49.0" r="3.4" fill="#a9a094" opacity="0.7"/>
    <circle cx="1530.0" cy="49.0" r="3.4" fill="#a9a094" opacity="0.7"/>
    <rect x="1466.0" y="190.0" width="76" height="18" fill="#5e574d" opacity="0.8"/>
    <circle cx="1478.0" cy="199.0" r="3.4" fill="#a9a094" opacity="0.7"/>
    <circle cx="1530.0" cy="199.0" r="3.4" fill="#a9a094" opacity="0.7"/>
    <rect x="1466.0" y="340.0" width="76" height="18" fill="#5e574d" opacity="0.8"/>
    <circle cx="1478.0" cy="349.0" r="3.4" fill="#a9a094" opacity="0.7"/>
    <circle cx="1530.0" cy="349.0" r="3.4" fill="#a9a094" opacity="0.7"/>
    <rect x="1466.0" y="490.0" width="76" height="18" fill="#5e574d" opacity="0.8"/>
    <circle cx="1478.0" cy="499.0" r="3.4" fill="#a9a094" opacity="0.7"/>
    <circle cx="1530.0" cy="499.0" r="3.4" fill="#a9a094" opacity="0.7"/>
    <rect x="1466.0" y="640.0" width="76" height="18" fill="#5e574d" opacity="0.8"/>
    <circle cx="1478.0" cy="649.0" r="3.4" fill="#a9a094" opacity="0.7"/>
    <circle cx="1530.0" cy="649.0" r="3.4" fill="#a9a094" opacity="0.7"/>
    <rect x="1466.0" y="790.0" width="76" height="18" fill="#5e574d" opacity="0.8"/>
    <circle cx="1478.0" cy="799.0" r="3.4" fill="#a9a094" opacity="0.7"/>
    <circle cx="1530.0" cy="799.0" r="3.4" fill="#a9a094" opacity="0.7"/>
    <rect x="1466.0" y="940.0" width="76" height="18" fill="#5e574d" opacity="0.8"/>
    <circle cx="1478.0" cy="949.0" r="3.4" fill="#a9a094" opacity="0.7"/>
    <circle cx="1530.0" cy="949.0" r="3.4" fill="#a9a094" opacity="0.7"/>
    <rect x="1466.0" y="1090.0" width="76" height="18" fill="#5e574d" opacity="0.8"/>
    <circle cx="1478.0" cy="1099.0" r="3.4" fill="#a9a094" opacity="0.7"/>
    <circle cx="1530.0" cy="1099.0" r="3.4" fill="#a9a094" opacity="0.7"/>
    <rect x="774.0" y="0" width="3.5" height="1200" fill="#8b8377" opacity="0.5"/>
    <rect x="791.0" y="0" width="3.5" height="1200" fill="#8b8377" opacity="0.5"/>
    <rect x="809.0" y="0" width="3.5" height="1200" fill="#8b8377" opacity="0.5"/>
    <rect x="826.0" y="0" width="3.5" height="1200" fill="#8b8377" opacity="0.5"/>
  </g>
  <rect width="1600" height="1200" fill="url(#depth)"/>
</svg>